{
  "accessors": [
    {
      "bufferView": 2,
      "componentType": 5126,
      "count": 12,
      "max": [
        3.679832935333252,
        5.05295991897583,
        7.484401226043701
      ],
      "min": [
        9.999999974752427e-07,
        -0.5165740251541138,
        7.484399795532227
      ],
      "type": "VEC3"
    },
    {
      "bufferView": 2,
      "byteOffset": 144,
      "componentType": 5126,
      "count": 12,
      "max": [
        0.0,
        0.30313611030578613,
        1.0
      ],
      "min": [
        0.0,
        0.0,
        0.9529473781585693
      ],
      "type": "VEC3"
    },
    {
      "bufferView": 1,
      "componentType": 5126,
      "count": 12,
      "max": [
        0.7030100226402283,
        0.6622670292854309
      ],
      "min": [
        0.19643500447273254,
        -0.3877510130405426
      ],
      "type": "VEC2"
    },
    {
      "bufferView": 0,
      "componentType": 5125,
      "count": 30,
      "type": "SCALAR"
    },
    {
      "bufferView": 2,
      "byteOffset": 288,
      "componentType": 5126,
      "count": 23,
      "max": [
        9.999999974752427e-07,
        -0.5165740251541138,
        7.484402179718018
      ],
      "min": [
        -3.679831027984619,
        -4.19883918762207,
        7.484399795532227
      ],
      "type": "VEC3"
    },
    {
      "bufferView": 2,
      "byteOffset": 564,
      "componentType": 5126,
      "count": 23,
      "max": [
        3.999999989900971e-06,
        9.999999974752427e-07,
        1.0
      ],
      "min": [
        -9.999999974752427e-07,
        -1.9999999949504854e-06,
        1.0
      ],
      "type": "VEC3"
    },
    {
      "bufferView": 1,
      "byteOffset": 96,
      "componentType": 5126,
      "count": 23,
      "max": [
        1.1664810180664063,
        1.909682035446167
      ],
      "min": [
        -0.10493600368499756,
        0.19557200372219086
      ],
      "type": "VEC2"
    },
    {
      "bufferView": 0,
      "byteOffset": 120,
      "componentType": 5125,
      "count": 63,
      "type": "SCALAR"
    },
    {
      "bufferView": 2,
      "byteOffset": 840,
      "componentType": 5126,
      "count": 29,
      "max": [
        9.999999974752427e-07,
        5.05295991897583,
        7.484402179718018
      ],
      "min": [
        -3.679831027984619,
        -0.5167800188064575,
        7.484401226043701
      ],
      "type": "VEC3"
    },
    {
      "bufferView": 2,
      "byteOffset": 1188,
      "componentType": 5126,
      "count": 29,
      "max": [
        4.999999873689376e-06,
        0.30313611030578613,
        1.0
      ],
      "min": [
        -1.9999999949504854e-06,
        -9.999999974752427e-07,
        0.9529473781585693
      ],
      "type": "VEC3"
    },
    {
      "bufferView": 1,
      "byteOffset": 280,
      "componentType": 5126,
      "count": 29,
      "max": [
        1.2705609798431396,
        1.6612210273742676
      ],
      "min": [
        0.08635900169610977,
        -0.6637300252914429
      ],
      "type": "VEC2"
    },
    {
      "bufferView": 0,
      "byteOffset": 372,
      "componentType": 5125,
      "count": 81,
      "type": "SCALAR"
    },
    {
      "bufferView": 2,
      "byteOffset": 1536,
      "componentType": 5126,
      "count": 22,
      "max": [
        3.679832935333252,
        -0.5137820243835449,
        7.484402179718018
      ],
      "min": [
        9.999999974752427e-07,
        -4.19883918762207,
        7.484401226043701
      ],
      "type": "VEC3"
    },
    {
      "bufferView": 2,
      "byteOffset": 1800,
      "componentType": 5126,
      "count": 22,
      "max": [
        1.9999999949504854e-06,
        9.999999974752427e-07,
        1.0
      ],
      "min": [
        -1.9999999949504854e-06,
        0.0,
        1.0
      ],
      "type": "VEC3"
    },
    {
      "bufferView": 1,
      "byteOffset": 512,
      "componentType": 5126,
      "count": 22,
      "max": [
        0.9525169730186462,
        1.3761169910430908
      ],
      "min": [
        -0.024441000074148178,
        0.22062599658966064
      ],
      "type": "VEC2"
    },
    {
      "bufferView": 0,
      "byteOffset": 696,
      "componentType": 5125,
      "count": 60,
      "type": "SCALAR"
    },
    {
      "bufferView": 2,
      "byteOffset": 2064,
      "componentType": 5126,
      "count": 897,
      "max": [
        3.742201089859009,
        5.1390910148620605,
        7.484394073486328
      ],
      "min": [
        -4.347838878631592,
        -5.4910759925842285,
        1.9958410263061523
      ],
      "type": "VEC3"
    },
    {
      "bufferView": 2,
      "byteOffset": 12828,
      "componentType": 5126,
      "count": 897,
      "max": [
        1.0,
        1.0,
        1.0
      ],
      "min": [
        -1.0,
        -1.0,
        -1.0
      ],
      "type": "VEC3"
    },
    {
      "bufferView": 1,
      "byteOffset": 688,
      "componentType": 5126,
      "count": 897,
      "max": [
        0.8442599773406982,
        0.7280449867248535
      ],
      "min": [
        0.17752599716186523,
        0.13597699999809265
      ],
      "type": "VEC2"
    },
    {
      "bufferView": 0,
      "byteOffset": 936,
      "componentType": 5125,
      "count": 1443,
      "type": "SCALAR"
    },
    {
      "bufferView": 2,
      "byteOffset": 23592,
      "componentType": 5126,
      "count": 4740,
      "max": [
        5.2335381507873535,
        5.558310031890869,
        7.484403133392334
      ],
      "min": [
        -5.2335381507873535,
        -5.2969970703125,
        0.16077600419521332
      ],
      "type": "VEC3"
    },
    {
      "bufferView": 2,
      "byteOffset": 80472,
      "componentType": 5126,
      "count": 4740,
      "max": [
        1.0,
        1.0,
        1.0
      ],
      "min": [
        -1.0,
        -1.0,
        -1.0
      ],
      "type": "VEC3"
    },
    {
      "bufferView": 1,
      "byteOffset": 7864,
      "componentType": 5126,
      "count": 4740,
      "max": [
        1.0,
        1.0
      ],
      "min": [
        0.0,
        0.0
      ],
      "type": "VEC2"
    },
    {
      "bufferView": 0,
      "byteOffset": 6708,
      "componentType": 5125,
      "count": 11796,
      "type": "SCALAR"
    },
    {
      "bufferView": 2,
      "byteOffset": 137352,
      "componentType": 5126,
      "count": 321,
      "max": [
        3.9187300205230713,
        7.705479145050049,
        6.474009037017822
      ],
      "min": [
        -3.9187300205230713,
        -5.199379920959473,
        0.06098400056362152
      ],
      "type": "VEC3"
    },
    {
      "bufferView": 2,
      "byteOffset": 141204,
      "componentType": 5126,
      "count": 321,
      "max": [
        1.0,
        1.0,
        1.0
      ],
      "min": [
        -1.0,
        -0.9992847442626953,
        -1.0
      ],
      "type": "VEC3"
    },
    {
      "bufferView": 1,
      "byteOffset": 45784,
      "componentType": 5126,
      "count": 321,
      "max": [
        0.0,
        0.0
      ],
      "min": [
        0.0,
        0.0
      ],
      "type": "VEC2"
    },
    {
      "bufferView": 0,
      "byteOffset": 53892,
      "componentType": 5125,
      "count": 852,
      "type": "SCALAR"
    },
    {
      "bufferView": 2,
      "byteOffset": 145056,
      "componentType": 5126,
      "count": 330,
      "max": [
        2.5671510696411133,
        5.3170928955078125,
        7.484402179718018
      ],
      "min": [
        -3.4206490516662598,
        -3.165076971054077,
        1.1636860370635986
      ],
      "type": "VEC3"
    },
    {
      "bufferView": 2,
      "byteOffset": 149016,
      "componentType": 5126,
      "count": 330,
      "max": [
        1.0,
        1.0,
        1.0
      ],
      "min": [
        -1.0,
        -0.9994224905967712,
        -1.0
      ],
      "type": "VEC3"
    },
    {
      "bufferView": 1,
      "byteOffset": 48352,
      "componentType": 5126,
      "count": 330,
      "max": [
        0.851315975189209,
        1.2190250158309937
      ],
      "min": [
        0.0,
        -0.1705770045518875
      ],
      "type": "VEC2"
    },
    {
      "bufferView": 0,
      "byteOffset": 57300,
      "componentType": 5125,
      "count": 861,
      "type": "SCALAR"
    }
  ],
  "asset": {
    "extras": {
      "author": "Jeffrey fan 2000 (https://sketchfab.com/8723516)",
      "license": "CC-BY-4.0 (http://creativecommons.org/licenses/by/4.0/)",
      "source": "https://sketchfab.com/3d-models/gamecube-console-187a584e3bff46c2aa1bd8a701211fb4",
      "title": "GameCube console"
    },
    "generator": "Sketchfab-12.67.0",
    "version": "2.0"
  },
  "bufferViews": [
    {
      "buffer": 0,
      "byteLength": 60744,
      "name": "floatBufferViews",
      "target": 34963
    },
    {
      "buffer": 0,
      "byteLength": 50992,
      "byteOffset": 60744,
      "byteStride": 8,
      "name": "floatBufferViews",
      "target": 34962
    },
    {
      "buffer": 0,
      "byteLength": 152976,
      "byteOffset": 111736,
      "byteStride": 12,
      "name": "floatBufferViews",
      "target": 34962
    }
  ],
  "buffers": [
    {
      "byteLength": 264712,
      "uri": "scene.bin"
    }
  ],
  "images": [
    {
      "uri": "textures/material_baseColor.png"
    },
    {
      "uri": "textures/mesh0051mat_baseColor.png"
    },
    {
      "uri": "textures/mesh0052mat_baseColor.png"
    },
    {
      "uri": "textures/mesh0053mat_baseColor.png"
    },
    {
      "uri": "textures/mesh0054mat_baseColor.png"
    },
    {
      "uri": "textures/mesh0055mat_baseColor.png"
    },
    {
      "uri": "textures/mesh0068mat_baseColor.png"
    },
    {
      "uri": "textures/mesh0074mat_baseColor.png"
    }
  ],
  "materials": [
    {
      "doubleSided": true,
      "name": "material",
      "pbrMetallicRoughness": {
        "baseColorTexture": {
          "index": 0
        },
        "metallicFactor": 0.0
      }
    },
    {
      "doubleSided": true,
      "name": "mesh0051mat",
      "pbrMetallicRoughness": {
        "baseColorTexture": {
          "index": 1
        },
        "metallicFactor": 0.0
      }
    },
    {
      "doubleSided": true,
      "name": "mesh0052mat",
      "pbrMetallicRoughness": {
        "baseColorTexture": {
          "index": 2
        },
        "metallicFactor": 0.0
      }
    },
    {
      "doubleSided": true,
      "name": "mesh0053mat",
      "pbrMetallicRoughness": {
        "baseColorTexture": {
          "index": 3
        },
        "metallicFactor": 0.0
      }
    },
    {
      "doubleSided": true,
      "name": "mesh0054mat",
      "pbrMetallicRoughness": {
        "baseColorTexture": {
          "index": 4
        },
        "metallicFactor": 0.0
      }
    },
    {
      "doubleSided": true,
      "name": "mesh0055mat",
      "pbrMetallicRoughness": {
        "baseColorTexture": {
          "index": 5
        },
        "metallicFactor": 0.0
      }
    },
    {
      "doubleSided": true,
      "name": "mesh0068mat",
      "pbrMetallicRoughness": {
        "baseColorTexture": {
          "index": 6
        },
        "metallicFactor": 0.0
      }
    },
    {
      "doubleSided": true,
      "name": "mesh0074mat",
      "pbrMetallicRoughness": {
        "baseColorTexture": {
          "index": 7
        },
        "metallicFactor": 0.0
      }
    }
  ],
  "meshes": [
    {
      "name": "Object_0",
      "primitives": [
        {
          "attributes": {
            "NORMAL": 1,
            "POSITION": 0,
            "TEXCOORD_0": 2
          },
          "indices": 3,
          "material": 2,
          "mode": 4
        }
      ]
    },
    {
      "name": "Object_1",
      "primitives": [
        {
          "attributes": {
            "NORMAL": 5,
            "POSITION": 4,
            "TEXCOORD_0": 6
          },
          "indices": 7,
          "material": 3,
          "mode": 4
        }
      ]
    },
    {
      "name": "Object_2",
      "primitives": [
        {
          "attributes": {
            "NORMAL": 9,
            "POSITION": 8,
            "TEXCOORD_0": 10
          },
          "indices": 11,
          "material": 4,
          "mode": 4
        }
      ]
    },
    {
      "name": "Object_3",
      "primitives": [
        {
          "attributes": {
            "NORMAL": 13,
            "POSITION": 12,
            "TEXCOORD_0": 14
          },
          "indices": 15,
          "material": 5,
          "mode": 4
        }
      ]
    },
    {
      "name": "Object_4",
      "primitives": [
        {
          "attributes": {
            "NORMAL": 17,
            "POSITION": 16,
            "TEXCOORD_0": 18
          },
          "indices": 19,
          "material": 0,
          "mode": 4
        }
      ]
    },
    {
      "name": "Object_5",
      "primitives": [
        {
          "attributes": {
            "NORMAL": 21,
            "POSITION": 20,
            "TEXCOORD_0": 22
          },
          "indices": 23,
          "material": 1,
          "mode": 4
        }
      ]
    },
    {
      "name": "Object_6",
      "primitives": [
        {
          "attributes": {
            "NORMAL": 25,
            "POSITION": 24,
            "TEXCOORD_0": 26
          },
          "indices": 27,
          "material": 7,
          "mode": 4
        }
      ]
    },
    {
      "name": "Object_7",
      "primitives": [
        {
          "attributes": {
            "NORMAL": 29,
            "POSITION": 28,
            "TEXCOORD_0": 30
          },
          "indices": 31,
          "material": 6,
          "mode": 4
        }
      ]
    }
  ],
  "nodes": [
    {
      "children": [
        1
      ],
      "matrix": [
        1.0,
        0.0,
        0.0,
        0.0,
        0.0,
        2.220446049250313e-16,
        -1.0,
        0.0,
        0.0,
        1.0,
        2.220446049250313e-16,
        0.0,
        0.0,
        0.0,
        0.0,
        1.0
      ],
      "name": "Sketchfab_model"
    },
    {
      "children": [
        2,
        3,
        4,
        5,
        6,
        7,
        8,
        9
      ],
      "name": "gamecube.obj.cleaner.materialmerger.gles"
    },
    {
      "mesh": 0,
      "name": "Object_2"
    },
    {
      "mesh": 1,
      "name": "Object_3"
    },
    {
      "mesh": 2,
      "name": "Object_4"
    },
    {
      "mesh": 3,
      "name": "Object_5"
    },
    {
      "mesh": 4,
      "name": "Object_6"
    },
    {
      "mesh": 5,
      "name": "Object_7"
    },
    {
      "mesh": 6,
      "name": "Object_8"
    },
    {
      "mesh": 7,
      "name": "Object_9"
    }
  ],
  "samplers": [
    {
      "magFilter": 9729,
      "minFilter": 9987,
      "wrapS": 10497,
      "wrapT": 10497
    }
  ],
  "scene": 0,
  "scenes": [
    {
      "name": "Sketchfab_Scene",
      "nodes": [
        0
      ]
    }
  ],
  "textures": [
    {
      "sampler": 0,
      "source": 0
    },
    {
      "sampler": 0,
      "source": 1
    },
    {
      "sampler": 0,
      "source": 2
    },
    {
      "sampler": 0,
      "source": 3
    },
    {
      "sampler": 0,
      "source": 4
    },
    {
      "sampler": 0,
      "source": 5
    },
    {
      "sampler": 0,
      "source": 6
    },
    {
      "sampler": 0,
      "source": 7
    }
  ]
}
