{
  "accessors": [
    {
      "bufferView": 2,
      "componentType": 5126,
      "count": 2931,
      "max": [
        0.10819999873638153,
        0.007406999822705984,
        0.002343999920412898
      ],
      "min": [
        -0.006858000066131353,
        -0.26319700479507446,
        -0.03672200068831444
      ],
      "type": "VEC3"
    },
    {
      "bufferView": 2,
      "byteOffset": 35172,
      "componentType": 5126,
      "count": 2931,
      "max": [
        1.0,
        1.0,
        1.0
      ],
      "min": [
        -1.0,
        -1.0,
        -1.0
      ],
      "type": "VEC3"
    },
    {
      "bufferView": 3,
      "componentType": 5126,
      "count": 2931,
      "max": [
        1.0,
        1.0,
        1.0,
        1.0
      ],
      "min": [
        -1.0,
        -1.0,
        -1.0,
        -1.0
      ],
      "type": "VEC4"
    },
    {
      "bufferView": 1,
      "componentType": 5126,
      "count": 2931,
      "max": [
        0.999343991279602,
        0.9931319952011108
      ],
      "min": [
        0.0006559999892488122,
        0.0006559999892488122
      ],
      "type": "VEC2"
    },
    {
      "bufferView": 0,
      "componentType": 5125,
      "count": 5424,
      "type": "SCALAR"
    },
    {
      "bufferView": 2,
      "byteOffset": 70344,
      "componentType": 5126,
      "count": 7057,
      "max": [
        0.1396999955177307,
        0.1524060070514679,
        0.02539999969303608
      ],
      "min": [
        -0.1396999955177307,
        0.11605499684810638,
        -0.02539999969303608
      ],
      "type": "VEC3"
    },
    {
      "bufferView": 2,
      "byteOffset": 155028,
      "componentType": 5126,
      "count": 7057,
      "max": [
        1.0,
        1.0,
        1.0
      ],
      "min": [
        -1.0,
        -9.999999974752427e-07,
        -1.0
      ],
      "type": "VEC3"
    },
    {
      "bufferView": 3,
      "byteOffset": 46896,
      "componentType": 5126,
      "count": 7057,
      "max": [
        1.0,
        1.0,
        1.0,
        1.0
      ],
      "min": [
        -1.0,
        -1.0,
        -1.0,
        1.0
      ],
      "type": "VEC4"
    },
    {
      "bufferView": 1,
      "byteOffset": 23448,
      "componentType": 5126,
      "count": 7057,
      "max": [
        0.9989849925041199,
        0.9736490249633789
      ],
      "min": [
        0.00101500004529953,
        0.00101500004529953
      ],
      "type": "VEC2"
    },
    {
      "bufferView": 0,
      "byteOffset": 21696,
      "componentType": 5125,
      "count": 10743,
      "type": "SCALAR"
    },
    {
      "bufferView": 2,
      "byteOffset": 239712,
      "componentType": 5126,
      "count": 380,
      "max": [
        0.1671770066022873,
        0.27194100618362427,
        0.025001000612974167
      ],
      "min": [
        -0.10440599918365479,
        -0.024612000212073326,
        -0.026592999696731567
      ],
      "type": "VEC3"
    },
    {
      "bufferView": 2,
      "byteOffset": 244272,
      "componentType": 5126,
      "count": 380,
      "max": [
        1.0,
        1.0,
        1.0
      ],
      "min": [
        -1.0,
        -0.9976931214332581,
        -1.0
      ],
      "type": "VEC3"
    },
    {
      "bufferView": 3,
      "byteOffset": 159808,
      "componentType": 5126,
      "count": 380,
      "max": [
        1.0,
        1.0,
        1.0,
        1.0
      ],
      "min": [
        -1.0,
        -1.0,
        -1.0,
        1.0
      ],
      "type": "VEC4"
    },
    {
      "bufferView": 1,
      "byteOffset": 79904,
      "componentType": 5126,
      "count": 380,
      "max": [
        0.9997180104255676,
        0.8477810025215149
      ],
      "min": [
        0.00028199999360367656,
        0.00028199999360367656
      ],
      "type": "VEC2"
    },
    {
      "bufferView": 0,
      "byteOffset": 64668,
      "componentType": 5125,
      "count": 636,
      "type": "SCALAR"
    },
    {
      "bufferView": 2,
      "byteOffset": 248832,
      "componentType": 5126,
      "count": 147,
      "max": [
        0.1396999955177307,
        0.13494299352169037,
        -0.006399999838322401
      ],
      "min": [
        -0.1396999955177307,
        -0.15240000188350677,
        -0.02539999969303608
      ],
      "type": "VEC3"
    },
    {
      "bufferView": 2,
      "byteOffset": 250596,
      "componentType": 5126,
      "count": 147,
      "max": [
        1.0,
        0.9998145699501038,
        1.0
      ],
      "min": [
        -1.0,
        -0.9999998807907104,
        -1.0
      ],
      "type": "VEC3"
    },
    {
      "bufferView": 3,
      "byteOffset": 165888,
      "componentType": 5126,
      "count": 147,
      "max": [
        0.9999997615814209,
        1.0,
        1.0,
        1.0
      ],
      "min": [
        -1.0,
        -1.0,
        -1.0,
        1.0
      ],
      "type": "VEC4"
    },
    {
      "bufferView": 1,
      "byteOffset": 82944,
      "componentType": 5126,
      "count": 147,
      "max": [
        0.9998379945755005,
        0.9028909802436829
      ],
      "min": [
        0.0001630000042496249,
        0.0001630000042496249
      ],
      "type": "VEC2"
    },
    {
      "bufferView": 0,
      "byteOffset": 67212,
      "componentType": 5125,
      "count": 288,
      "type": "SCALAR"
    },
    {
      "bufferView": 2,
      "byteOffset": 252360,
      "componentType": 5126,
      "count": 380,
      "max": [
        0.13399800658226013,
        0.1524060070514679,
        0.02539999969303608
      ],
      "min": [
        -0.1396999955177307,
        -0.1376820057630539,
        -0.006399999838322401
      ],
      "type": "VEC3"
    },
    {
      "bufferView": 2,
      "byteOffset": 256920,
      "componentType": 5126,
      "count": 380,
      "max": [
        1.0,
        0.5745209455490112,
        1.0
      ],
      "min": [
        -1.0,
        -1.0,
        -1.0
      ],
      "type": "VEC3"
    },
    {
      "bufferView": 3,
      "byteOffset": 168240,
      "componentType": 5126,
      "count": 380,
      "max": [
        0.05832640826702118,
        1.0,
        1.0,
        1.0
      ],
      "min": [
        -0.9999784827232361,
        -1.0,
        -1.0,
        1.0
      ],
      "type": "VEC4"
    },
    {
      "bufferView": 1,
      "byteOffset": 84120,
      "componentType": 5126,
      "count": 380,
      "max": [
        0.9997490048408508,
        0.9687929749488831
      ],
      "min": [
        0.00025099999038502574,
        0.00025099999038502574
      ],
      "type": "VEC2"
    },
    {
      "bufferView": 0,
      "byteOffset": 68364,
      "componentType": 5125,
      "count": 642,
      "type": "SCALAR"
    },
    {
      "bufferView": 2,
      "byteOffset": 261480,
      "componentType": 5126,
      "count": 57,
      "max": [
        0.1396999955177307,
        0.1524060070514679,
        0.02539999969303608
      ],
      "min": [
        -0.1396999955177307,
        -0.1376820057630539,
        0.00139999995008111
      ],
      "type": "VEC3"
    },
    {
      "bufferView": 2,
      "byteOffset": 262164,
      "componentType": 5126,
      "count": 57,
      "max": [
        1.0,
        0.001879000454209745,
        1.0
      ],
      "min": [
        -0.00505099818110466,
        -0.8765226006507874,
        -1.0
      ],
      "type": "VEC3"
    },
    {
      "bufferView": 3,
      "byteOffset": 174320,
      "componentType": 5126,
      "count": 57,
      "max": [
        1.0,
        1.0,
        0.8765226006507874,
        1.0
      ],
      "min": [
        -1.0,
        -1.0,
        -0.0018790066242218018,
        1.0
      ],
      "type": "VEC4"
    },
    {
      "bufferView": 1,
      "byteOffset": 87160,
      "componentType": 5126,
      "count": 57,
      "max": [
        0.9202340245246887,
        0.7234389781951904
      ],
      "min": [
        0.00025099999038502574,
        0.00025099999038502574
      ],
      "type": "VEC2"
    },
    {
      "bufferView": 0,
      "byteOffset": 70932,
      "componentType": 5125,
      "count": 102,
      "type": "SCALAR"
    }
  ],
  "asset": {
    "extras": {
      "author": "Smoggybeard (https://sketchfab.com/Smoggybeard)",
      "license": "CC-BY-NC-SA-4.0 (http://creativecommons.org/licenses/by-nc-sa/4.0/)",
      "source": "https://sketchfab.com/3d-models/playstation-4-d4d72667ee8244a194b2416ff6de84b7",
      "title": "Playstation 4"
    },
    "generator": "Sketchfab-12.68.0",
    "version": "2.0"
  },
  "bufferViews": [
    {
      "buffer": 0,
      "byteLength": 71340,
      "name": "floatBufferViews",
      "target": 34963
    },
    {
      "buffer": 0,
      "byteLength": 87616,
      "byteOffset": 71340,
      "byteStride": 8,
      "name": "floatBufferViews",
      "target": 34962
    },
    {
      "buffer": 0,
      "byteLength": 262848,
      "byteOffset": 158956,
      "byteStride": 12,
      "name": "floatBufferViews",
      "target": 34962
    },
    {
      "buffer": 0,
      "byteLength": 175232,
      "byteOffset": 421804,
      "byteStride": 16,
      "name": "floatBufferViews",
      "target": 34962
    }
  ],
  "buffers": [
    {
      "byteLength": 597036,
      "uri": "scene.bin"
    }
  ],
  "images": [
    {
      "uri": "textures/Plastic_Smooth_Base_baseColor.png"
    },
    {
      "uri": "textures/Plastic_Smooth_Base_metallicRoughness.png"
    },
    {
      "uri": "textures/Plastic_Smooth_Base_emissive.jpeg"
    },
    {
      "uri": "textures/Plastic_Smooth_Base_normal.png"
    },
    {
      "uri": "textures/Plastic_Grain_Base_baseColor.jpeg"
    },
    {
      "uri": "textures/Plastic_Grain_Base_metallicRoughness.png"
    },
    {
      "uri": "textures/Plastic_Grain_Base_normal.png"
    },
    {
      "uri": "textures/Plastic_Base_Bottom_baseColor.jpeg"
    },
    {
      "uri": "textures/Plastic_Base_Bottom_metallicRoughness.png"
    },
    {
      "uri": "textures/Plastic_Base_Bottom_normal.png"
    },
    {
      "uri": "textures/Vent-Grills_RubberFeet_Buttons_baseColor.jpeg"
    },
    {
      "uri": "textures/Vent-Grills_RubberFeet_Buttons_metallicRoughness.png"
    },
    {
      "uri": "textures/Vent-Grills_RubberFeet_Buttons_normal.png"
    },
    {
      "uri": "textures/Back_Plastic_baseColor.jpeg"
    },
    {
      "uri": "textures/Back_Plastic_metallicRoughness.png"
    },
    {
      "uri": "textures/Back_Plastic_normal.png"
    },
    {
      "uri": "textures/Input-Ouput_Ports_baseColor.jpeg"
    },
    {
      "uri": "textures/Input-Ouput_Ports_metallicRoughness.png"
    },
    {
      "uri": "textures/Input-Ouput_Ports_normal.png"
    }
  ],
  "materials": [
    {
      "alphaMode": "BLEND",
      "doubleSided": true,
      "emissiveFactor": [
        1.0,
        1.0,
        1.0
      ],
      "emissiveTexture": {
        "index": 2
      },
      "name": "Plastic_Smooth_Base",
      "normalTexture": {
        "index": 3
      },
      "occlusionTexture": {
        "index": 1
      },
      "pbrMetallicRoughness": {
        "baseColorTexture": {
          "index": 0
        },
        "metallicRoughnessTexture": {
          "index": 1
        }
      }
    },
    {
      "doubleSided": true,
      "name": "Plastic_Grain_Base",
      "normalTexture": {
        "index": 6
      },
      "occlusionTexture": {
        "index": 5
      },
      "pbrMetallicRoughness": {
        "baseColorTexture": {
          "index": 4
        },
        "metallicRoughnessTexture": {
          "index": 5
        }
      }
    },
    {
      "doubleSided": true,
      "name": "Plastic_Base_Bottom",
      "normalTexture": {
        "index": 9,
        "scale": 0.5732463260553661
      },
      "occlusionTexture": {
        "index": 8
      },
      "pbrMetallicRoughness": {
        "baseColorTexture": {
          "index": 7
        },
        "metallicRoughnessTexture": {
          "index": 8
        }
      }
    },
    {
      "doubleSided": true,
      "name": "Vent-Grills_RubberFeet_Buttons",
      "normalTexture": {
        "index": 12
      },
      "occlusionTexture": {
        "index": 11
      },
      "pbrMetallicRoughness": {
        "baseColorTexture": {
          "index": 10
        },
        "metallicRoughnessTexture": {
          "index": 11
        }
      }
    },
    {
      "doubleSided": true,
      "name": "Back_Plastic",
      "normalTexture": {
        "index": 15
      },
      "occlusionTexture": {
        "index": 14
      },
      "pbrMetallicRoughness": {
        "baseColorTexture": {
          "index": 13
        },
        "metallicRoughnessTexture": {
          "index": 14
        }
      }
    },
    {
      "doubleSided": true,
      "name": "Input-Ouput_Ports",
      "normalTexture": {
        "index": 18
      },
      "occlusionTexture": {
        "index": 17
      },
      "pbrMetallicRoughness": {
        "baseColorTexture": {
          "index": 16
        },
        "metallicRoughnessTexture": {
          "index": 17
        }
      }
    }
  ],
  "meshes": [
    {
      "name": "defaultMaterial",
      "primitives": [
        {
          "attributes": {
            "NORMAL": 1,
            "POSITION": 0,
            "TANGENT": 2,
            "TEXCOORD_0": 3
          },
          "indices": 4,
          "material": 5,
          "mode": 4
        }
      ]
    },
    {
      "name": "defaultMaterial",
      "primitives": [
        {
          "attributes": {
            "NORMAL": 6,
            "POSITION": 5,
            "TANGENT": 7,
            "TEXCOORD_0": 8
          },
          "indices": 9,
          "material": 4,
          "mode": 4
        }
      ]
    },
    {
      "name": "defaultMaterial",
      "primitives": [
        {
          "attributes": {
            "NORMAL": 11,
            "POSITION": 10,
            "TANGENT": 12,
            "TEXCOORD_0": 13
          },
          "indices": 14,
          "material": 3,
          "mode": 4
        }
      ]
    },
    {
      "name": "defaultMaterial",
      "primitives": [
        {
          "attributes": {
            "NORMAL": 16,
            "POSITION": 15,
            "TANGENT": 17,
            "TEXCOORD_0": 18
          },
          "indices": 19,
          "material": 2,
          "mode": 4
        }
      ]
    },
    {
      "name": "defaultMaterial",
      "primitives": [
        {
          "attributes": {
            "NORMAL": 21,
            "POSITION": 20,
            "TANGENT": 22,
            "TEXCOORD_0": 23
          },
          "indices": 24,
          "material": 0,
          "mode": 4
        }
      ]
    },
    {
      "name": "defaultMaterial",
      "primitives": [
        {
          "attributes": {
            "NORMAL": 26,
            "POSITION": 25,
            "TANGENT": 27,
            "TEXCOORD_0": 28
          },
          "indices": 29,
          "material": 1,
          "mode": 4
        }
      ]
    }
  ],
  "nodes": [
    {
      "children": [
        1
      ],
      "matrix": [
        1.0,
        0.0,
        0.0,
        0.0,
        0.0,
        2.220446049250313e-16,
        -1.0,
        0.0,
        0.0,
        1.0,
        2.220446049250313e-16,
        0.0,
        0.0,
        0.0,
        0.0,
        1.0
      ],
      "name": "Sketchfab_model"
    },
    {
      "children": [
        2,
        4,
        6,
        8,
        10
      ],
      "matrix": [
        1.0,
        0.0,
        0.0,
        0.0,
        0.0,
        -4.371139006309477e-08,
        0.999999999999999,
        0.0,
        0.0,
        -0.999999999999999,
        -4.371139006309477e-08,
        0.0,
        0.0,
        0.0,
        0.0,
        1.0
      ],
      "name": "Collada visual scene group"
    },
    {
      "children": [
        3
      ],
      "matrix": [
        100.0,
        0.0,
        0.0,
        0.0,
        0.0,
        -1.6e-05,
        -100.0,
        0.0,
        0.0,
        100.0,
        -1.6e-05,
        0.0,
        0.037618,
        1.4087,
        -13.369936,
        1.0
      ],
      "name": "Input-Ouput_Ports"
    },
    {
      "mesh": 0,
      "name": "defaultMaterial"
    },
    {
      "children": [
        5
      ],
      "matrix": [
        100.0,
        0.0,
        0.0,
        0.0,
        0.0,
        -1.6e-05,
        -100.0,
        0.0,
        0.0,
        100.0,
        -1.6e-05,
        0.0,
        0.0,
        0.0,
        0.0,
        1.0
      ],
      "name": "Back_Plastic"
    },
    {
      "mesh": 1,
      "name": "defaultMaterial"
    },
    {
      "children": [
        7
      ],
      "matrix": [
        100.0,
        0.0,
        0.0,
        0.0,
        0.0,
        -1.6e-05,
        -100.0,
        0.0,
        0.0,
        100.0,
        -1.6e-05,
        0.0,
        -2.91634,
        0.0,
        12.565863,
        1.0
      ],
      "name": "Vent-Grills_RubberFeet_Buttons"
    },
    {
      "mesh": 2,
      "name": "defaultMaterial"
    },
    {
      "children": [
        9
      ],
      "matrix": [
        100.0,
        0.0,
        0.0,
        0.0,
        0.0,
        -1.6e-05,
        -100.0,
        0.0,
        0.0,
        100.0,
        -1.6e-05,
        0.0,
        0.0,
        0.0,
        0.0,
        1.0
      ],
      "name": "Plastic_Base_Bottom"
    },
    {
      "mesh": 3,
      "name": "defaultMaterial"
    },
    {
      "children": [
        11,
        12
      ],
      "matrix": [
        100.0,
        0.0,
        0.0,
        0.0,
        0.0,
        -1.6e-05,
        -100.0,
        0.0,
        0.0,
        100.0,
        -1.6e-05,
        0.0,
        0.0,
        0.0,
        0.0,
        1.0
      ],
      "name": "Plastic_Smooth/Grain_top"
    },
    {
      "mesh": 4,
      "name": "defaultMaterial"
    },
    {
      "mesh": 5,
      "name": "defaultMaterial"
    }
  ],
  "samplers": [
    {
      "magFilter": 9729,
      "minFilter": 9987,
      "wrapS": 10497,
      "wrapT": 10497
    }
  ],
  "scene": 0,
  "scenes": [
    {
      "name": "Sketchfab_Scene",
      "nodes": [
        0
      ]
    }
  ],
  "textures": [
    {
      "sampler": 0,
      "source": 0
    },
    {
      "sampler": 0,
      "source": 1
    },
    {
      "sampler": 0,
      "source": 2
    },
    {
      "sampler": 0,
      "source": 3
    },
    {
      "sampler": 0,
      "source": 4
    },
    {
      "sampler": 0,
      "source": 5
    },
    {
      "sampler": 0,
      "source": 6
    },
    {
      "sampler": 0,
      "source": 7
    },
    {
      "sampler": 0,
      "source": 8
    },
    {
      "sampler": 0,
      "source": 9
    },
    {
      "sampler": 0,
      "source": 10
    },
    {
      "sampler": 0,
      "source": 11
    },
    {
      "sampler": 0,
      "source": 12
    },
    {
      "sampler": 0,
      "source": 13
    },
    {
      "sampler": 0,
      "source": 14
    },
    {
      "sampler": 0,
      "source": 15
    },
    {
      "sampler": 0,
      "source": 16
    },
    {
      "sampler": 0,
      "source": 17
    },
    {
      "sampler": 0,
      "source": 18
    }
  ]
}
